<?xml version="1.0" standalone="no"?>
<!DOCTYPE svg PUBLIC "-//W3C//DTD SVG 1.1//EN" "http://www.w3.org/Graphics/SVG/1.1/DTD/svg11.dtd" >
<svg xmlns="http://www.w3.org/2000/svg">
<metadata>Generated by IcoMoon</metadata>
<defs>
<font id="icomoon-the7-social-icons-16x16" horiz-adv-x="1024">
<font-face units-per-em="1024" ascent="960" descent="-64" />
<missing-glyph horiz-adv-x="1024" />
<glyph unicode="&#x20;" horiz-adv-x="512" d="" />
<glyph unicode="&#xe900;" glyph-name="px" d="M226.88 749.184l-154.624-0.896c-37.888-0.832-58.496 2.176-58.496-38.912v-142.656c0-5.376 17.984-11.84 23.808-13.056 5.888-1.344 27.52-3.84 30.336 1.024 16.96 9.408 44.608 22.912 69.376 21.248 26.752-1.728 46.848-22.912 47.168-54.4 0.32-34.816-31.104-48.064-54.4-48.064-33.344 0-37.568 7.744-48.192 18.752-6.976 8.256-4.416 23.296-43.648 18.24-19.136-2.432-26.112-21.568-24.128-27.776 8.256-67.456 48.256-80.064 112-80.064 94.72 0 134.656 28.032 134.656 121.344 0 114.688-99.84 114.624-127.424 113.344-36.544-1.664-35.2-0.64-48.576-5.376l0.896 49.6 140.224 0.896zM841.28 747.456c-93.12 0-169.024-75.904-169.024-169.024 0-93.184 75.904-168.96 169.024-168.96s169.024 75.776 169.024 168.96c-0.064 93.184-75.904 169.024-169.024 169.024zM841.28 494.976c-46.016 0-83.392 37.44-83.392 83.52s37.376 83.52 83.392 83.52c46.144 0 83.52-37.44 83.52-83.52s-37.44-83.52-83.52-83.52zM470.080 747.456c-93.12 0-169.024-75.904-169.024-169.024 0-93.184 75.904-168.96 169.024-168.96s169.024 75.776 169.024 168.96c-0.064 93.184-75.904 169.024-169.024 169.024zM470.080 494.976c-46.016 0-83.392 37.44-83.392 83.52s37.376 83.52 83.392 83.52c46.144 0 83.52-37.44 83.52-83.52s-37.44-83.52-83.52-83.52zM346.624 316.8c-87.552 0.192-137.344-64.768-137.344-131.008v-226.752c0-10.432 28.16-17.024 38.656-17.024 10.368 0 41.728 7.552 41.728 17.984v205.376c1.024 32 16.384 62.656 52.352 63.616 30.912 0.896 54.976-14.976 56-42.368 1.088-29.696 0-57.28-27.008-57.28-3.072 0-35.008 0-41.024-18.368-3.264-9.92-3.2-12.352-3.328-22.848-0.384-28.032 15.296-37.12 15.296-37.12 19.008-9.28 42.944-6.080 64 1.024 34.56 11.584 68.8 49.984 68.8 136.448 0.128 62.592-56.704 128.192-128.128 128.32zM723.392 182.464l73.664 80.64c13.504 13.504 11.584 43.2-1.92 56.64-8.32 8.384-33.088 20.608-63.040-7.616l-68.8-73.984-80.256 84.928c-13.504 13.504-42.24 10.112-55.68-3.392-13.504-13.44-17.792-39.104-4.288-52.608l81.024-80.384-77.952-75.712c-13.504-13.44-12.608-38.464 0.896-51.968 6.656-6.72 23.296-17.28 32.064-17.28 8.896 0 19.456 2.496 26.176 9.28l78.016 81.984 83.136-81.152c6.656-6.72 19.84-10.112 28.672-10.112 8.768 0 18.112 9.6 24.832 16.384 13.504 13.504 15.808 34.432 2.304 47.872l-78.848 76.48z" />
<glyph unicode="&#xe901;" glyph-name="behance" d="M392.064 141.504c23.488 6.976 44.48 17.856 62.72 32.896 18.112 14.72 32.96 33.856 43.712 57.344 10.624 23.232 16 51.008 16 83.264 0 39.616-8.128 73.472-24.96 101.888-16.576 28.032-41.664 47.872-75.776 59.008 24.96 13.632 43.584 31.104 56.448 52.416 12.288 21.312 18.88 48 18.88 79.936 0 29.568-4.224 54.592-12.608 74.56-8.64 20.096-20.736 36.224-36.16 48.32-15.488 12.032-33.984 20.864-55.616 26.176-21.76 5.44-45.504 8-71.744 8h-259.84v-634.688h267.072c24.64 0 48.896 3.776 71.872 10.88zM174.208 657.344h113.6c10.688 0 21.312-0.832 31.232-3.072 10.176-2.112 19.072-5.888 26.816-11.2 7.744-5.184 14.080-12.608 18.688-22.144 4.416-9.344 6.784-21.632 6.784-36.288 0-26.688-6.784-46.144-20.864-57.856-14.016-11.904-31.872-17.664-53.376-17.664h-122.88v148.224zM174.208 238.848v174.72h132.096c26.176 0 47.232-6.912 63.104-20.8 16-14.080 24-37.376 24-70.080 0-16.832-2.24-30.592-7.296-41.216-4.8-10.624-11.712-19.072-19.712-25.216-8.128-6.528-17.664-10.88-28.608-13.632-10.624-2.624-22.016-3.904-34.048-3.904l-129.536 0.128zM619.776 192.384c18.176-19.776 39.872-34.88 65.728-45.632 25.984-10.752 54.72-16.128 86.976-16.128 45.952 0 85.568 10.88 118.080 33.152 32.768 22.016 56.768 58.624 72.64 109.632h-98.624c-3.84-13.12-13.696-25.664-29.888-37.632-16.512-11.904-35.968-17.856-58.624-17.856-31.168 0-55.488 8.704-72.32 25.6-16.896 17.216-27.776 48.896-27.776 82.496h294.208c2.048 33.024-0.576 64.384-7.68 94.656-7.424 30.208-19.392 57.088-35.968 80.576-16.64 23.552-37.76 42.496-63.488 56.256-25.856 14.144-56.128 21.12-90.496 21.12-31.168 0-59.392-5.76-85.056-17.344-25.344-11.52-47.488-27.328-66.048-47.36-18.432-19.84-32.576-43.712-42.688-71.232-9.728-27.584-14.848-57.344-14.848-88.96 0-32.896 4.8-63.104 14.656-90.624 9.536-27.328 23.296-50.88 41.216-70.72zM681.28 427.712c2.88 10.56 7.872 20.48 14.784 29.888 7.36 9.344 16.96 17.216 28.288 23.488 11.968 6.336 26.752 9.536 44.48 9.536 27.648 0 49.92-8.32 63.232-23.68 13.312-15.488 25.984-55.808 28.608-85.504h-185.344c0.768 8.064 3.072 35.904 5.952 46.272zM640 755.2h256v-102.4h-256v102.4z" />
<glyph unicode="&#xe902;" glyph-name="blogger" d="M792 896h-560c-92.8 0-168-75.2-168-168v-560c0-92.8 75.2-168 168-168h560c92.8 0 168 75.2 168 168v560c0 92.8-75.2 168-168 168zM791.232 348.992c0-99.584-81.088-180.288-181.376-180.288h-195.52c-100.224 0-181.696 80.64-181.696 180.288v197.888c0.064 99.648 81.344 180.416 181.696 180.416h91.52c100.352 0 180.672-75.008 180.672-174.592 1.28-18.688 18.112-34.944 37.312-34.944h31.232c20.096 0 36.096-21.056 36.096-40.96v-127.808h0.064zM616.768 378.176h-209.472c-19.2 0-34.88-15.68-34.88-34.944 0-19.136 15.744-34.88 34.88-34.88h209.472c19.2 0 34.88 15.744 34.88 34.88 0 19.264-15.68 34.944-34.88 34.944zM407.296 517.824h104.704c19.2 0 34.88 15.744 34.88 34.944s-15.744 34.88-34.88 34.88h-104.704c-19.2 0-34.88-15.744-34.88-34.88-0.128-19.264 15.616-34.944 34.88-34.944z" />
<glyph unicode="&#xe903;" glyph-name="delicious" d="M512 832h-384v-768h768v768h-384zM832 128h-320v320h-320v320h320v-320h320z" />
<glyph unicode="&#xe904;" glyph-name="deviantart" d="M763.264 699.328v132.288c0 3.52-1.344 6.848-3.904 9.344-2.368 2.496-5.888 3.904-9.344 3.904h-145.536c-4.608 0-9.024-2.496-11.392-6.528l-73.92-118.144-16.32-20.864h-228.928c-7.296 0-13.248-5.888-13.248-13.184v-198.528c0-7.296 5.952-13.248 13.248-13.248h126.592l2.752-2.88-140.992-260.992c-1.024-1.92-1.536-4.032-1.536-6.336v-139.84c0-7.296 5.952-13.248 13.248-13.248h145.472c4.672 0 9.024 2.496 11.392 6.592l78.848 138.88 9.344 13.376h230.976c7.36 0 13.248 5.888 13.248 13.248v185.216c0 7.36-5.888 13.248-13.248 13.248h-126.656l-2.496 2.432 140.864 269.12c1.024 1.92 1.536 4.032 1.536 6.144z" />
<glyph unicode="&#xe905;" glyph-name="dribbble" d="M833.536 736.448l-6.016 6.336c-79.232 84.352-191.488 137.216-315.52 137.216-49.6 0-97.152-8.448-140.864-23.616l-5.12-1.664c-144.32-51.968-253.056-178.944-280.192-334.208v0c0-0.832 0-1.28 0-1.6-4.096-23.168-5.824-46.848-5.824-70.912 0-102.912 36.096-197.376 96.192-272.128 0.96 0 5.056-5.888 5.056-5.888 79.232-94.080 198.336-153.984 330.752-153.984 49.6 0 97.728 8.512 142.592 24.512 1.536 0 2.496 0.384 3.392 0.768 142.656 51.52 249.728 175.104 278.464 326.272 0 0.384 0 0.768 0 1.28 5.056 25.664 7.552 52.224 7.552 79.168 0.064 110.4-42.112 211.648-110.464 288.448zM512.064 793.408c88.576 0 169.6-33.728 231.104-89.088-43.008-58.624-102.848-97.408-168.704-122.304-10.88 25.664-22.016 48.896-32 69.504-30.464 60.032-60.736 105.92-83.648 137.6 17.024 3.008 34.688 4.288 53.248 4.288zM370.368 763.008c25.344-32.064 74.24-100.736 120.64-205.44-121.536-25.664-245.568-17.28-309.696-9.664 28.672 95.744 98.752 174.272 189.056 215.104zM166.208 447.936c0 5.056 0.768 9.6 0.768 14.72 34.624-4.608 85.248-9.344 145.28-9.344 28.736 0 59.136 1.344 91.136 4.16 42.176 3.456 82.688 9.728 119.808 19.072 8.512-23.616 16-48.128 23.616-73.792-38.72-11.392-78.592-25.408-120.64-42.624-89.408-36.352-161.984-77.632-202.496-102.144-36.48 54.528-57.472 119.872-57.472 189.952zM512.064 102.4c-88.64 0-170.432 33.728-231.104 89.152 57.344 33.6 165.376 91.52 286.784 127.36 13.44-62.528 24.384-130.752 29.504-205.888-27.776-6.784-55.68-10.624-85.184-10.624zM680.832 146.624c-5.888 69.632-16 133.76-28.608 192.384 63.232 11.904 128.256 15.232 189.76 4.736-27.072-84.352-85.248-154.496-161.152-197.12zM857.216 428.544c-68.288 12.224-144.256 10.496-226.176-5.504-8.448 27.84-16.832 54.080-25.28 78.464 81.088 31.232 146.88 76.8 194.944 136.256 36.288-54.4 57.344-119.744 57.344-189.824-0.128-6.4-0.832-12.736-0.832-19.392z" />
<glyph unicode="&#xe906;" glyph-name="fb" d="M402.56 683.84c0 4.8 0.64 15.104 1.92 30.912 1.408 15.872 7.488 32.512 18.112 49.856 10.752 17.344 28.032 32.96 51.968 46.72s58.432 20.672 103.552 20.672h126.976v-138.368h-92.992c-9.344 0-17.792-3.52-25.536-10.304s-11.712-13.312-11.712-19.328v-86.080h130.112c-1.344-16.896-2.752-33.28-4.48-49.088l-5.184-41.856c-2.048-14.080-4.16-27.264-6.208-39.296h-115.2v-383.68h-171.328v383.744h-83.712v130.176h83.712v105.92z" />
<glyph unicode="&#xe907;" glyph-name="flickr" d="M275.2 256c-105.792 0-192 86.144-192 192s86.208 192 192 192c105.856 0 192-86.144 192-192s-86.144-192-192-192zM275.2 532.672c-49.408 0-89.536-40.192-89.536-89.6-0.064-49.472 40.064-89.6 89.536-89.6s89.6 40.128 89.6 89.6c0 49.408-40.192 89.6-89.6 89.6zM748.8 640c-105.856 0-192-86.144-192-192s86.144-192 192-192c105.792 0 192 86.144 192 192s-86.144 192-192 192z" />
<glyph unicode="&#xe908;" glyph-name="foursquare" d="M820.864 806.016c-15.872 23.68-46.848 26.304-72.832 25.984-156.672-0.704-313.344-0.256-470.080-0.128-9.024-0.32-17.984-0.832-26.88-2.56-28.736-4.8-52.416-28.928-57.472-57.408-4.544-28.096-1.92-56.896-2.24-85.248-0.064-230.080 0.128-460.16-0.192-690.24 0.64-14.272 1.152-29.696 9.984-41.6 13.824-19.008 41.984-23.744 62.464-13.504 12.352 6.656 21.504 17.6 30.72 28.032 67.328 79.424 137.28 156.672 204.48 236.288 7.424 8.448 16.128 17.6 28.416 16.896 48.512 2.496 97.088-1.536 145.6 0.896 16.512 0.896 33.6 5.568 45.568 17.536 16.32 16 21.376 39.232 26.496 60.608 27.584 133.44 52.48 267.52 80.128 400.96 6.464 33.664 16.128 72.576-4.16 103.488zM700.032 589.824c-3.968-13.248-21.184-12.352-32.832-13.312-58.24-1.152-116.544 1.408-174.72-0.256-17.792 0.704-37.056-10.496-38.144-29.76-3.776-24.064-2.304-61.184 27.904-66.496 57.024-6.4 114.88 2.112 172.032-3.456 19.008-0.576 19.328-22.976 16.384-36.864-6.592-33.536-11.52-67.584-21.312-100.48-2.496-10.88-12.864-16.576-23.424-16.64-48.128-3.968-96.576 1.664-144.64-1.728-19.712-0.32-31.488-17.984-43.136-31.232-48.512-59.712-97.344-119.040-147.392-177.344-1.984 187.648 0.128 375.36-1.152 563.072 0.32 13.952-0.384 28.672 4.8 41.984 7.36 15.552 26.752 15.168 41.408 16 114.24-0.128 228.544-0.448 342.848 0.128 18.944-0.64 38.848 2.56 43.84-14.4 6.592-22.336-13.568-99.84-22.464-129.216z" />
<glyph unicode="&#xe909;" glyph-name="github" d="M927.68 677.312c-42.88 73.536-101.12 131.776-174.656 174.656-73.472 42.88-153.728 64.384-240.896 64.384-87.040 0-167.36-21.504-240.96-64.384-73.472-42.88-131.84-101.12-174.656-174.656-43.008-73.6-64.448-153.92-64.448-240.96 0-104.576 30.592-198.592 91.584-282.176s139.968-141.312 236.48-173.44c11.264-2.048 19.648-0.64 25.152 4.352 5.376 4.928 8 11.264 8 18.752 0 1.28-0.128 12.416-0.256 33.664-0.256 21.312-0.32 39.872-0.32 55.616l-14.464-2.496c-9.152-1.664-20.736-2.432-34.688-2.24s-28.416 1.728-43.392 4.416c-14.976 2.752-28.992 8.96-41.856 18.752-12.864 9.664-22.144 22.656-27.52 38.464l-6.336 14.4c-4.032 9.6-10.688 20.224-19.712 31.872-9.024 11.712-17.984 19.648-27.264 23.744l-4.224 3.136c-2.944 2.112-5.568 4.608-8.128 7.488-2.496 3.008-4.352 5.888-5.696 8.832-1.152 2.944-0.128 5.312 3.2 7.168 3.392 1.792 9.344 2.752 18.176 2.752l12.352-1.792c8.384-1.664 18.752-6.656 30.912-14.976 12.288-8.32 22.464-19.136 30.336-32.512 9.6-17.088 21.248-30.208 34.752-39.040 13.504-8.96 27.136-13.376 40.896-13.376 13.888 0 25.6 1.024 35.712 3.136 9.984 2.048 19.456 5.248 28.032 9.344 3.84 27.968 14.080 49.344 30.656 64.32-23.744 2.496-45.12 6.272-64.064 11.264-18.944 5.056-38.656 13.12-58.688 24.384-20.16 11.264-37.056 25.344-50.368 41.92-13.312 16.448-24.256 38.4-32.768 65.472-8.512 26.944-12.8 58.304-12.8 93.696 0 50.432 16.512 93.312 49.344 128.704-15.36 37.888-13.952 80.512 4.352 127.488 12.032 3.776 30.080 0.96 53.696-8.448 23.744-9.344 41.28-17.408 52.224-24 11.008-6.592 19.904-12.288 26.56-16.896 38.72 10.752 78.72 16.192 120 16.192s81.344-5.44 120-16.192l23.68 14.976c16.32 9.984 35.456 19.136 57.472 27.456s38.912 10.624 50.624 6.848c18.752-47.040 20.352-89.536 4.928-127.488 32.96-35.392 49.408-78.336 49.408-128.768 0-35.456-4.288-66.752-12.8-94.016-8.576-27.264-19.712-49.152-33.216-65.536s-30.464-30.336-50.624-41.536c-20.16-11.328-39.744-19.392-58.752-24.384s-40.256-8.832-64-11.328c21.632-18.752 32.384-48.32 32.384-88.704v-131.904c0-7.488 2.624-13.824 7.872-18.752 5.248-4.992 13.376-6.528 24.768-4.352 96.64 32 175.488 89.856 236.48 173.376 60.992 83.648 91.648 177.6 91.648 282.24 0.256 87.168-21.184 167.488-64.128 241.088z" />
<glyph unicode="&#xe90a;" glyph-name="googleplus" d="M304.064 150.4c-169.408 0-304.064 131.84-304.064 297.6s134.656 297.536 304.064 297.536c82.624 0 152.064-29.696 204.224-80.768l-82.56-76.544c-21.76 21.312-60.8 46.784-121.664 46.784-104.256 0-186.816-85.056-186.816-187.008 0-102.016 82.56-187.008 186.816-187.008 121.664 0 165.12 84.992 173.76 127.488h-173.76v102.080h286.656c4.48-17.088 4.48-29.696 4.48-51.008 0-170.048-117.312-289.152-291.136-289.152zM1024 405.376h-149.376v-149.376h-85.184v149.376h-149.44v85.312h149.376v149.312h85.184v-149.312h149.44v-85.312z" />
<glyph unicode="&#xe90b;" glyph-name="instagram" d="M712.704 896h-401.472c-136.32 0-247.232-110.912-247.232-247.232v-401.408c0-136.384 110.912-247.36 247.232-247.36h401.472c136.448 0 247.296 110.976 247.296 247.296v401.344c0 136.448-110.848 247.36-247.296 247.36zM854.4 261.504c0-86.016-69.952-156.032-155.968-156.032h-372.992c-85.952 0-155.904 70.016-155.904 156.032v372.928c0 86.016 69.952 155.968 155.904 155.968h372.992c86.016 0 155.968-69.952 155.968-155.968v-372.928zM512 684.8c-130.624 0-236.8-106.176-236.8-236.8s106.176-236.8 236.8-236.8 236.8 106.176 236.8 236.8-106.176 236.8-236.8 236.8zM512 310.528c-75.904 0-137.6 61.632-137.6 137.472 0 75.968 61.696 137.6 137.6 137.6s137.6-61.696 137.6-137.6c0-75.904-61.696-137.472-137.6-137.472zM742.4 736c-15.040 0-30.016-6.208-40.64-16.896-10.752-10.624-16.896-25.472-16.896-40.64 0-15.232 6.144-30.080 16.896-40.768 10.56-10.688 25.472-16.896 40.64-16.896s30.016 6.208 40.768 16.896c10.688 10.624 16.832 25.472 16.832 40.768 0 15.168-6.144 30.016-16.896 40.64-10.752 10.688-25.536 16.896-40.704 16.896z" />
<glyph unicode="&#xe90c;" glyph-name="lastfm" d="M403.136 316.096c-21.504-19.264-62.72-57.792-131.328-57.792-80.896 0-158.848 70.976-158.848 184.448 0 145.408 93.248 192.32 164.736 192.32 103.232 0 125.824-62.336 153.984-148.608l37.568-118.272c37.504-114.688 107.904-206.912 310.72-206.912 145.472 0 243.968 44.992 243.968 163.2 0 95.744-53.952 145.344-154.816 169.088l-75.072 16.512c-51.648 11.84-66.816 33.152-66.816 68.608 0 40.192 31.552 63.872 83.264 63.872 56.256 0 86.784-21.312 91.584-72.128l117.248 14.208c-9.344 106.432-82.112 150.144-201.728 150.144-105.472 0-208.768-40.192-208.768-169.088 0-80.384 38.656-131.264 136-154.944l79.808-18.88c59.84-14.144 79.744-38.912 79.744-73.344 0-43.84-42.176-61.504-121.92-61.504-118.528 0-177.984 62.656-206.144 148.992l-38.72 118.272c-49.216 153.664-107.328 210.432-263.36 210.432-139.2 0.128-274.24-109.888-274.24-296.64 0-179.776 129.664-276.672 265.92-276.672 98.56 0 148.608 34.752 173.056 52.416l-35.84 102.272z" />
<glyph unicode="&#xe90d;" glyph-name="linkedin" d="M896 425.024v-293.248h-160v273.792c0 68.672-27.904 115.584-87.488 115.584-45.376 0-72.192-31.744-84.224-62.208-4.096-11.008-5.568-26.304-5.568-41.6v-285.504h-164.096c0 0 2.24 463.296 0 511.232h164.096v-72.448c-0.064-0.512-0.704-1.024-0.832-1.6h0.832v1.728c22.208 34.816 60.736 84.416 148.096 84.416 108.16-0.064 189.184-72.96 189.184-230.144zM222.528 892.224c-57.216 0-94.528-40.512-94.528-93.952 0-52.032 36.352-94.080 92.224-94.080h1.344c58.304 0 94.592 41.856 94.592 94.080-1.344 53.44-36.288 93.952-93.632 93.952zM145.024 133.76h156.224v507.584h-156.224v-507.584z" />
<glyph unicode="&#xe90e;" glyph-name="mail" d="M960 234.624c0-18.624-5.504-35.968-14.4-51.264l-282.88 301.376 279.808 233.28c10.88-16.512 17.472-35.776 17.472-56.704v-426.688zM512 430.144l389.376 324.416c-16 8.32-33.984 13.44-53.376 13.44h-672c-19.456 0-37.44-5.12-53.312-13.44l389.312-324.416zM620.544 449.728l-90.112-75.136c-5.312-4.48-11.776-6.592-18.432-6.592-6.592 0-13.184 2.112-18.432 6.592l-90.176 75.136-286.464-305.344c17.152-10.24 37.312-16.384 59.072-16.384h672c21.76 0 41.856 6.144 59.072 16.384l-286.528 305.344zM81.408 718.016c-10.816-16.512-17.408-35.776-17.408-56.704v-426.688c0-18.752 5.504-35.968 14.4-51.264l282.88 301.504-279.872 233.152z" />
<glyph unicode="&#xe90f;" glyph-name="odnoklassniki" d="M467.904 264.96c-69.44 7.232-132.032 24.32-185.728 66.24-6.656 5.184-13.504 10.24-19.584 16.064-23.424 22.528-25.792 48.384-7.232 75.008 15.872 22.72 42.56 28.8 70.272 15.744 5.44-2.496 10.496-5.696 15.424-9.088 99.84-68.672 237.12-70.528 337.408-3.072 9.984 7.552 20.544 13.76 32.896 16.96 24 6.208 46.336-2.624 59.136-23.552 14.72-23.936 14.528-47.232-3.648-65.856-27.712-28.48-61.056-49.088-98.112-63.424-35.008-13.632-73.344-20.352-111.424-25.024 5.76-6.208 8.448-9.28 12.032-12.864 51.52-51.904 103.424-103.424 154.752-155.456 17.472-17.664 21.184-39.68 11.584-60.288-10.56-22.528-34.176-37.376-57.344-35.776-14.656 1.024-26.176 8.32-36.224 18.56-38.912 39.168-78.656 77.632-116.8 117.568-11.072 11.648-16.448 9.344-26.24-0.704-39.104-40.32-78.912-80-118.976-119.488-17.92-17.664-39.296-20.928-60.224-10.816-22.144 10.752-36.224 33.408-35.136 56.192 0.768 15.36 8.32 27.136 18.816 37.632 51.136 50.944 102.016 102.080 152.96 153.216 3.328 3.328 6.464 6.976 11.392 12.224zM510.208 442.496c-123.904 0.448-225.472 103.104-224.832 227.264 0.704 125.44 102.464 226.624 227.584 226.24 125.312-0.32 225.984-102.848 225.344-229.696-0.64-123.84-102.912-224.256-228.096-223.808zM622.784 669.44c-0.192 61.632-49.28 110.656-110.784 110.784-62.016 0-111.488-49.92-111.040-112.128 0.512-61.376 49.984-110.080 111.68-109.824 61.44 0.192 110.336 49.6 110.144 111.168z" />
<glyph unicode="&#xe910;" glyph-name="pinterest" d="M754.176 746.688c-57.216 55.040-136.64 85.312-223.168 85.312-132.416 0-213.824-54.336-258.816-99.776-55.36-56.128-87.104-130.56-87.104-204.352 0-92.544 38.656-163.712 103.616-190.080 4.224-1.792 8.64-2.752 12.928-2.752 13.824 0 24.576 9.024 28.16 23.36 2.24 8.256 7.232 28.544 9.472 37.376 4.736 17.408 1.024 25.792-9.344 37.888-18.624 22.336-27.52 48.576-27.52 82.688 0 101.44 75.712 209.344 215.744 209.344 110.976 0 179.968-63.168 179.968-164.864 0-64.064-14.016-123.456-38.848-167.36-17.472-30.4-48.256-66.688-95.104-66.688-20.288 0-38.72 8.448-50.112 22.912-11.008 14.016-14.592 31.808-10.24 50.304 4.928 20.992 11.904 42.88 18.24 64.064 11.904 38.656 23.104 75.136 23.104 104.128 0 49.792-30.592 83.264-76.096 83.264-57.728 0-103.104-58.752-103.104-133.824 0-36.8 9.664-64.384 14.272-74.944-7.168-30.848-50.624-214.528-58.88-249.152-4.608-20.16-33.344-179.968 14.144-192.64 53.312-14.336 100.608 141.12 105.472 158.784 3.968 14.336 17.728 68.16 26.048 101.568 25.728-24.704 67.072-41.472 107.328-41.472 76.032 0 144.384 34.048 192.384 96.256 46.592 60.032 72.256 144 72.256 236.032-0.192 71.936-30.848 142.848-84.8 194.624z" />
<glyph unicode="&#xe911;" glyph-name="reddit" d="M1024 457.408c0 62.272-50.816 112.832-113.344 112.832-30.528 0-58.112-12.16-78.528-31.808-77.248 50.816-171.008 82.624-286.72 86.784l60.032 197.952 163.968-38.4-0.256-2.496c0-50.88 41.472-92.288 92.672-92.288 51.072 0 92.672 41.408 92.672 92.288s-41.6 92.288-92.672 92.288c-39.168 0-58.88-15.232-79.296-43.968l-186.56 43.968c-8.064 1.984-30.848-13.376-33.344-21.312l-73.28-227.264c-27.776-0.32-171.2-3.072-299.264-86.144-20.224 18.688-47.040 30.4-76.736 30.4-62.528 0-113.344-50.688-113.344-112.896 0-41.408 22.72-77.312 56.192-96.832-2.24-12.096-3.648-24.256-3.648-36.608 0-166.784 205.12-302.656 457.344-302.656 231.36 0 457.344 139.392 457.344 302.656 0 11.776-1.344 23.232-3.136 34.624 35.456 19.072 59.904 55.936 59.904 98.88zM667.648 456.448c42.368 0 76.8-34.304 76.8-76.544 0-42.176-34.432-76.416-76.8-76.416s-76.928 34.24-76.928 76.48c0 42.176 34.56 76.48 76.928 76.48zM356.608 456.384c42.368 0 76.8-34.304 76.8-76.544 0-42.112-34.432-76.352-76.8-76.352-42.304 0-76.864 34.24-76.864 76.352 0 42.304 34.56 76.544 76.864 76.544zM726.848 189.888v0c-1.664-6.464-4.8-11.904-8.64-16.256-3.968-4.352-8.384-7.744-12.992-10.688-9.28-5.76-19.136-9.664-26.496-14.080l-0.512-0.384c-56.256-26.432-119.424-41.024-182.208-41.024-69.632 0-138.944 17.92-197.824 57.6-6.016 3.2-10.624 8.064-13.568 13.568-3.136 5.824-4.672 12.16-4.672 18.624 0 7.104 1.856 14.336 5.632 20.416 3.648 5.952 9.216 10.944 16.384 13.696v0c0.192 0.064 0.448 0.128 0.704 0.256 4.544 2.048 9.216 3.072 13.632 3.072 5.312 0 10.304-1.344 14.784-3.264 4.544-1.92 8.64-4.352 12.608-6.976 7.744-5.12 14.784-10.496 20.992-12.992l0.192-0.128h0.192c41.216-20.224 86.656-29.952 132.416-29.952 60.992 0 122.496 17.088 174.656 48.32 5.504 3.648 11.712 5.248 17.664 5.248 7.36 0 14.464-2.368 20.48-6.272 6.016-3.968 11.008-9.344 14.144-16.128 2.112-4.416 3.456-9.344 3.456-14.656 0.128-2.496-0.192-5.248-1.024-8z" />
<glyph unicode="&#xe912;" glyph-name="researchgate" d="M64 760.32h233.856c52.736 0 93.76-13.248 123.136-39.744 29.248-26.56 43.968-66.944 43.968-121.216 0-41.984-8.512-76.224-25.472-102.784s-43.392-43.648-79.104-51.2v-1.728c21.696-2.944 38.912-8.32 51.904-16.192s22.848-19.264 29.952-34.112c6.976-14.848 11.904-33.664 14.528-56.448s4.224-50.752 4.8-83.968 2.496-58.624 5.696-76.096c3.264-17.472 10.752-29.44 22.464-35.84v-5.248h-138.88c-6.592 8.704-10.752 18.752-12.48 30.208-1.728 11.328-3.008 23.040-3.584 35.328l-3.392 119.872c-1.216 24.448-7.296 43.712-18.24 57.728s-29.568 20.992-55.68 20.992h-66.816v-264.192h-126.656v624.64zM190.656 487.36h52.736c30.528 0 53.888 7.104 70.4 21.44 16.384 14.336 24.64 38.4 24.64 72.192 0 57.728-29.376 86.656-88 86.656h-59.776v-180.288zM831.616 574.848c0 11.072-1.344 22.848-3.968 35.456-2.624 12.48-6.848 23.872-12.736 34.112-5.888 10.176-13.312 18.624-22.4 25.344-9.152 6.656-20.096 10.048-33.024 10.048-30.528 0-52.416-16.96-65.92-50.752-13.44-33.856-20.16-89.856-20.16-168 0-37.952 1.152-71.872 3.52-101.952 2.304-30.080 6.656-55.68 12.736-76.992s14.912-37.632 26.368-49.024 26.24-17.088 44.352-17.088c7.616 0 16 2.048 25.088 6.144s17.536 10.176 25.536 18.368c7.872 8.192 14.464 18.496 19.776 31.040 5.248 12.544 7.872 27.264 7.872 44.16v64.064h-83.52v92.736h204.864v-336.832h-93.248v57.664h-1.728c-15.232-24.512-33.472-42.304-54.912-53.376s-47.040-16.64-76.928-16.64c-38.656 0-70.208 7.168-94.528 21.44-24.384 14.336-43.392 35.456-57.152 63.424-13.824 28.032-22.976 62.592-27.776 103.68-4.608 41.216-6.976 88.896-6.976 143.104 0 52.48 3.392 98.56 10.112 138.24 6.72 39.616 18.304 72.768 34.752 99.328 16.384 26.496 38.080 46.528 65.024 59.968 27.008 13.376 60.672 20.096 101.12 20.096 69.12 0 118.976-17.088 149.504-51.264 30.528-34.048 45.76-82.944 45.76-146.496h-121.408z" />
<glyph unicode="&#xe913;" glyph-name="rss" d="M259.008 832c58.56 0 114.944-7.616 169.088-22.72 54.208-15.168 104.896-36.544 152.128-64.32 47.232-27.712 90.24-60.992 129.024-99.712 38.72-38.784 72-81.728 99.776-129.024s49.152-97.92 64.256-152.128c15.168-54.144 22.72-110.528 22.72-169.088 0-18.496-6.528-34.304-19.648-47.36-13.12-13.12-28.864-19.648-47.36-19.648s-34.24 6.528-47.36 19.648c-13.056 13.12-19.648 28.928-19.648 47.36 0 46.272-6.144 90.752-18.112 133.632s-29.056 83.008-50.88 120.128c-21.888 37.248-47.936 71.104-78.464 101.632-30.592 30.528-64.512 56.768-101.696 78.592-37.248 21.824-77.312 38.784-120.128 50.816s-87.424 18.112-133.632 18.112c-18.432 0-34.24 6.592-47.36 19.648-13.12 13.12-19.712 28.928-19.712 47.424 0 18.432 6.592 34.24 19.648 47.36s28.928 19.648 47.36 19.648zM259.008 578.56c52.864 0 102.592-10.112 149.056-30.464 46.464-20.224 87.040-47.744 121.664-82.368 34.624-34.752 62.144-75.264 82.432-121.664 20.288-46.592 30.464-96.192 30.464-149.056 0-18.496-6.592-34.24-19.584-47.36-13.312-13.12-28.992-19.648-47.488-19.648s-34.24 6.528-47.36 19.648-19.648 28.928-19.648 47.36c0 34.368-6.592 66.752-19.648 97.024s-30.912 56.704-53.504 79.296c-22.656 22.592-49.088 40.448-79.36 53.568-30.272 13.056-62.656 19.584-97.088 19.584-18.432 0-34.24 6.592-47.36 19.712s-19.584 28.928-19.584 47.36c0 18.496 6.592 34.304 19.648 47.424 13.12 13.056 28.928 19.584 47.36 19.584zM382.272 226.56c0-13.312-2.432-25.536-7.296-36.928-4.928-11.328-11.584-21.184-20.096-29.632-8.448-8.448-18.432-15.104-30.016-19.968s-23.744-7.296-36.608-7.296c-13.312 0-25.664 2.432-36.992 7.296-11.264 4.864-21.184 11.52-29.632 19.968s-15.104 18.368-20.032 29.632c-4.928 11.264-7.296 23.616-7.296 36.928 0 12.864 2.432 25.088 7.296 36.544 4.928 11.584 11.584 21.632 20.032 30.080s18.368 15.168 29.632 19.968c11.264 4.864 23.616 7.36 36.992 7.36 12.864 0 25.024-2.496 36.608-7.36s21.568-11.52 30.016-19.968c8.512-8.448 15.168-18.496 20.096-30.080 4.864-11.456 7.296-23.616 7.296-36.544z" />
<glyph unicode="&#xe914;" glyph-name="skype" d="M928.512 380.864c3.456 21.824 5.248 44.352 5.248 67.136 0 237.824-188.736 430.528-421.696 430.528-22.336 0-44.352-1.856-65.792-5.312-38.912 24.448-84.736 38.784-133.888 38.784-140.672 0-254.784-116.48-254.784-260.224 0-50.112 13.952-96.896 37.952-136.64-3.328-21.888-5.248-44.288-5.248-67.136 0-237.824 188.8-430.592 421.696-430.592 22.336 0 44.352 1.856 65.792 5.248 38.848-24.384 84.608-38.656 133.696-38.656 140.864 0 254.848 116.352 254.848 260.16 0.192 50.24-13.824 96.96-37.824 136.704zM712.192 252.16c-17.792-26.24-44.032-46.784-78.336-61.44-34.304-14.72-74.88-22.144-121.6-22.144-56.064 0-102.528 9.984-139.264 30.272-25.984 14.528-47.168 33.984-63.36 58.24-16.384 24.384-24.576 48-24.576 71.232 0 13.632 5.184 25.6 15.040 35.264 9.984 9.792 22.912 14.656 38.144 14.656 12.416 0 23.296-3.84 32-11.456 8.64-7.424 16-18.624 21.952-33.28 7.168-16.896 14.912-30.976 23.232-42.368 8.128-11.136 19.712-20.416 34.688-27.776 14.784-7.232 34.432-11.008 59.072-11.008 33.728 0 60.928 7.488 81.728 22.144 20.928 14.784 30.976 32.896 30.976 54.656 0 17.344-5.376 31.104-16.576 41.856-11.136 11.008-25.664 19.328-43.584 25.024-18.112 5.824-42.304 12.032-72.768 18.56-40.768 9.216-74.88 19.776-102.464 31.936-27.712 12.16-49.664 28.864-66.048 49.92-16.32 21.248-24.512 47.68-24.512 78.976 0 29.888 8.64 56.576 25.792 79.808 17.28 23.36 42.112 41.152 74.752 53.568 32.384 12.416 70.528 18.688 114.24 18.688 34.88 0 65.28-4.096 90.752-12.288 25.472-8.32 46.784-19.2 63.872-32.96 16.896-13.632 29.248-28.096 37.184-43.2 7.808-15.232 11.84-30.080 11.84-44.48 0-13.44-5.056-25.664-15.104-36.416-9.856-10.624-22.656-16.192-37.504-16.064-13.44 0-23.936 3.2-31.232 9.856-7.040 6.528-14.528 16.768-22.656 31.040-10.112 19.968-22.4 35.712-36.544 46.72-13.824 10.944-36.608 16.704-68.288 16.64-29.312 0-52.864-6.080-70.656-18.112-17.856-12.16-26.304-26.24-26.368-42.88 0-10.368 2.944-19.136 8.768-26.56 6.016-7.616 14.4-14.080 25.024-19.584 10.624-5.632 21.504-9.92 32.384-13.056 11.008-3.2 29.312-7.744 54.848-13.952 31.872-7.040 60.864-14.912 86.912-23.488 26.048-8.64 48.192-18.944 66.56-31.296 18.432-12.352 32.896-28.096 43.2-47.040s15.488-42.304 15.488-69.376c-0.128-33.024-9.152-62.592-27.008-88.832z" />
<glyph unicode="&#xe915;" glyph-name="soundcloud" d="M891.968 477.824c-18.048 0-35.392-3.584-51.072-9.856-10.496 114.368-110.336 204.032-232 204.032-29.76 0-58.688-5.632-84.288-15.168-9.984-3.712-12.608-7.488-12.608-14.912v-402.752c0-7.744 6.272-14.208 14.144-14.976 0.32 0 363.52-0.192 365.888-0.192 72.832 0 131.968 56.832 131.968 126.848 0 70.144-59.136 126.976-132.032 126.976zM400 224h32l16 224.256-16 223.744h-32l-16-223.744 16-224.256zM304 224h-32l-16 162.752 16 157.248h32l16-160-16-160zM144 224h32l16 128-16 128h-32l-16-128 16-128zM16 223.552h32l16 96.192-16 96.256h-32l-16-96.256 16-96.192z" />
<glyph unicode="&#xe916;" glyph-name="stumbleupon" d="M561.152 557.184h158.336v60.16c0 114.56-92.8 207.424-207.424 207.424-114.56 0-207.424-92.8-207.424-207.424v-294.784c0-27.136-22.016-49.152-49.152-49.152-27.072 0-49.152 22.016-49.152 49.152v125.44h-158.336v-131.008c0-114.496 92.864-207.36 207.424-207.36 114.624 0 207.424 92.8 207.424 207.36v300.352c0 27.136 22.080 49.088 49.152 49.088 27.136 0 49.216-21.952 49.216-49.152l-0.064-60.096zM817.728 448v-130.944c0-27.264-22.144-49.088-49.216-49.088-27.136 0-49.216 21.824-49.216 49.088v130.944h-158.208v-130.944c0-114.496 92.864-207.36 207.488-207.36 114.56 0 207.424 92.8 207.424 207.36v130.944h-158.272z" />
<glyph unicode="&#xe917;" glyph-name="tripadvisor" d="M627.52 767.552c28.608-4.032 56.576-11.2 84.224-19.712 48.256-14.848 93.824-35.52 136.64-62.336 3.008-1.856 6.976-3.008 10.496-3.008 50.304-0.192 100.608-0.128 150.848-0.192 4.096 0 8.128-0.448 12.096-0.64 0-1.024 0.192-1.408 0-1.6-2.368-3.648-4.736-7.168-7.040-10.752-17.088-26.176-31.68-53.568-40.32-83.84-0.896-3.264-1.152-6.016 1.152-9.152 44.736-64.384 59.072-134.976 40.384-211.072-16.448-66.752-54.72-118.784-112.896-155.712-41.536-26.304-87.488-38.848-136.512-39.168-20.608-0.128-41.152 2.688-61.248 7.872-49.152 12.672-91.136 37.248-125.824 74.24-4.544 4.864 0.32-0.64-4.544 4.864-18.304-27.392-44.544-110.848-62.976-138.432-18.368 27.52-47.424 110.848-65.216 137.344-1.28-0.64-8.448-9.408 0 0 0 0 0.32 0.384 0 0-41.92-49.472-87.296-71.488-151.552-81.664-35.776-5.632-71.104-3.648-105.792 5.952-49.216 13.504-91.008 39.488-124.8 77.76-32.96 37.504-53.504 80.896-61.248 130.432-8.832 46.080 1.92 90.496 4.608 101.312 7.808 31.36 21.312 60.16 39.936 86.656 1.28 1.856 1.728 5.248 1.152 7.488-7.616 27.84-20.672 53.12-35.968 77.312-3.904 6.144-8.576 11.84-12.864 17.728 0 0.704 0 1.344 0 2.048 0.832-0.064 1.728-0.256 2.56-0.256 51.456 0 102.912 0 154.432 0.064 2.24 0 4.736 0.96 6.656 2.176 36.16 23.232 74.688 41.6 115.2 55.936 29.248 10.24 59.008 18.304 89.472 24.192 29.44 5.696 59.072 9.728 88.96 11.712 72.896 5.568 131.2-2.112 169.984-7.552zM591.232 427.456c0-97.344 78.976-177.024 176.128-176.64 97.344 0.384 176 77.76 176 176.192-0.128 101.376-82.368 177.728-179.84 175.808-96.128-2.048-171.392-79.616-172.288-175.36zM256.384 603.712c-94.848 0.832-177.472-78.336-175.808-179.072 1.472-94.016 79.040-173.696 177.792-172.864 96.64 0.832 174.272 79.68 174.4 175.232 0.256 98.112-78.4 176.704-176.384 176.704zM313.472 680.96c61.248-15.616 101.888-45.376 121.408-68.416 39.232-45.504 67.392-88.768 77.184-150.208 10.048 60.672 36.288 112.384 81.472 153.792 25.856 23.104 57.344 38.528 129.216 64.512-84.736 24.512-132.032 28.864-210.752 30.336-67.968-0.576-107.392-2.048-198.528-30.016zM767.040 519.552c49.408 0.064 89.92-40.576 89.472-89.664-0.448-49.344-40.32-89.216-88.96-89.216-50.112 0-90.368 39.488-90.24 88.512 0.192 50.816 39.168 90.368 89.728 90.368zM253.312 519.424c49.664 0.064 89.664-39.616 89.792-89.088 0.256-49.152-40.064-89.472-89.536-89.6-50.624-0.064-89.728 39.040-89.6 89.984 0 49.792 38.976 88.64 89.344 88.704z" />
<glyph unicode="&#xe918;" glyph-name="tumblr" d="M592.192 204.224c-12.928 7.616-24.768 20.608-29.504 33.216-4.8 12.672-4.16 38.336-4.16 82.88v196.992h179.136v137.024h-179.136v177.664h-110.208c-4.928-39.552-13.952-72.256-27.072-97.856-13.184-25.664-30.528-47.616-52.288-65.92-21.632-18.304-56.96-32.32-87.36-42.112v-108.736h105.216v-269.312c0-35.2 3.776-62.016 11.136-80.448 7.424-18.432 20.736-35.968 40-52.416 19.2-16.256 42.432-28.928 69.632-37.888 27.136-8.96 48.064-13.312 83.52-13.312 31.104 0 60.096 3.072 86.976 9.28 26.88 6.4 56.896 17.216 89.856 32.512v121.216c-38.72-25.344-77.76-37.888-116.992-37.888-21.952-0.064-41.6 4.992-58.752 15.104z" />
<glyph unicode="&#xe919;" glyph-name="twitter" d="M932.032 671.872c-12.736-5.632-25.92-10.432-39.296-14.336 15.808 17.984 27.968 39.104 35.392 62.272 1.664 5.12 0 10.752-4.288 14.208-4.224 3.392-10.112 3.84-14.784 1.024-28.544-16.896-59.328-29.056-91.456-36.16-32.512 31.744-76.608 49.792-122.112 49.792-96.32 0-174.656-78.272-174.656-174.528 0-7.552 0.512-15.040 1.472-22.528-119.488 10.496-230.464 69.184-306.624 162.624-2.752 3.392-6.848 5.12-11.264 4.8-4.224-0.384-8.064-2.816-10.24-6.464-15.488-26.624-23.552-56.896-23.552-87.744 0-42.048 14.976-81.92 41.472-113.088-8.064 2.752-15.936 6.208-23.36 10.368-3.968 2.304-8.832 2.304-12.8 0s-6.592-6.464-6.656-11.072c0-0.768 0-1.536 0-2.304 0-62.784 33.728-119.232 85.376-150.016-4.416 0.256-8.96 1.088-13.312 1.856-4.48 0.896-9.28-0.704-12.224-4.224-3.2-3.328-4.096-8.256-2.688-12.608 19.136-59.648 68.352-103.552 127.808-116.928-49.344-30.912-105.728-47.104-164.992-47.104-12.352 0-24.768 0.768-36.992 2.176-6.016 0.832-11.776-2.752-13.824-8.576-2.112-5.696 0.064-12.096 5.248-15.424 76.032-48.768 164.032-74.56 254.464-74.56 177.664 0 288.768 83.776 350.656 154.048 77.248 87.616 121.472 203.648 121.472 318.208 0 4.8 0 9.6-0.128 14.4 30.4 22.976 56.64 50.752 78.016 82.688 3.264 4.864 2.88 11.264-0.896 15.744-3.648 4.416-9.92 5.824-15.232 3.456z" />
<glyph unicode="&#xe91a;" glyph-name="viber" d="M796.288 512.256c0.96 112.896-95.104 216.192-214.144 230.528-2.304 0.32-4.992 0.768-7.68 1.28-5.76 0.896-11.904 1.792-18.112 1.792-24.448 0-30.912-17.152-32.64-27.328-1.664-9.984 0-18.304 4.672-24.768 8.192-11.008 22.4-12.928 33.792-14.528 3.328-0.448 6.528-0.832 9.088-1.472 107.072-23.936 142.976-61.44 160.64-167.488 0.384-2.56 0.576-5.76 0.832-9.216 0.768-12.608 2.368-38.976 30.656-38.976v0c2.368 0 4.928 0.192 7.552 0.64 26.432 3.968 25.6 28.096 25.216 39.68-0.064 3.2-0.192 6.336 0.064 8.384 0 0.448 0.064 0.896 0.064 1.472zM549.44 784.192c3.2-0.256 6.144-0.448 8.64-0.896 175.68-26.944 256.384-110.208 278.784-287.168 0.384-3.008 0.448-6.72 0.448-10.56 0.32-13.824 0.704-42.624 31.68-43.136l0.96-0.064c9.664 0 17.408 2.944 22.848 8.704 9.6 10.048 9.088 25.024 8.448 36.928-0.192 3.008-0.256 5.824-0.256 8.192 2.304 181.056-154.432 345.216-335.296 351.296-0.832 0-1.408-0.064-2.176-0.128-0.384-0.128-1.024-0.128-2.176-0.128-1.728 0-3.968 0.128-6.336 0.32-2.944 0.192-6.144 0.448-9.408 0.448-28.736 0-34.304-20.48-34.944-32.704-1.6-28.16 25.664-30.144 38.784-31.104zM828.352 267.392c-3.712 2.88-7.552 5.824-11.2 8.704-19.2 15.424-39.552 29.696-59.264 43.456-4.16 2.816-8.192 5.696-12.288 8.64-25.28 17.6-48 26.304-69.44 26.304-28.992 0-54.144-15.936-74.944-47.488-9.28-13.952-20.416-20.672-34.176-20.672-8.192 0-17.408 2.24-27.52 6.848-81.536 36.928-139.776 93.568-173.12 168.512-16.064 36.16-10.816 59.776 17.408 79.040 16.128 11.008 46.144 31.296 44.032 70.272-2.496 44.096-100.032 177.28-141.184 192.384-17.344 6.4-35.648 6.4-54.464 0.128-47.168-15.808-81.152-43.776-97.92-80.704-16.448-35.648-15.616-77.44 2.048-121.024 51.328-125.888 123.392-235.648 214.272-326.272 89.024-88.64 198.336-161.28 325.12-215.808 11.456-4.864 23.296-7.616 32.192-9.472 2.944-0.768 5.504-1.28 7.36-1.792 1.024-0.256 2.112-0.448 3.264-0.448h0.896c59.712 0 131.2 54.464 153.216 116.544 19.2 54.4-16 81.216-44.288 102.848zM575.744 640.384c-10.112-0.256-31.424-0.832-38.848-22.4-3.52-10.112-3.072-18.944 1.216-26.048 6.336-10.624 18.432-13.824 29.504-15.616 39.936-6.464 60.48-28.48 64.64-69.568 1.856-19.136 14.784-32.576 31.36-32.576v0c1.216 0 2.368 0.064 3.712 0.256 19.968 2.432 29.568 17.088 28.608 43.52 0.448 27.648-14.080 58.944-38.656 83.968-24.704 25.024-54.4 39.104-81.536 38.464z" />
<glyph unicode="&#xe91b;" glyph-name="vimeo" d="M806.4 776.32c-115.712 3.776-194.048-61.12-234.88-194.752 21.056 8.64 41.6 13.056 61.568 13.056 42.112 0 60.8-23.68 55.744-71.104-2.368-28.736-20.992-70.592-55.744-125.44-34.816-54.976-60.928-82.432-78.208-82.432-22.656 0-43.008 42.496-61.632 127.36-6.4 25.024-17.6 88.64-33.6 191.040-14.912 94.848-54.72 139.2-119.36 132.928-27.392-2.496-68.288-27.52-123.008-74.944-39.744-36.16-80.256-72.384-121.28-108.544l39.040-50.496c37.376 26.24 59.264 39.296 65.344 39.296 28.672 0 55.424-44.928 80.256-134.72 22.464-82.496 44.736-164.864 67.328-247.168 33.344-89.856 74.496-134.848 122.88-134.848 78.336 0 174.208 73.6 287.232 220.992 109.312 140.992 165.888 252.096 169.536 333.312 4.864 108.48-35.392 163.968-121.216 166.464z" />
<glyph unicode="&#xe91c;" glyph-name="vk" d="M872.192 371.264c33.024-32.32 67.968-62.72 97.664-98.432 13.056-15.68 25.408-32.064 35.072-50.368 13.568-26.112 1.216-54.848-22.208-56.384h-145.344c-37.504-3.072-67.392 12.032-92.608 37.632-20.224 20.48-38.848 42.432-58.24 63.552-7.872 8.704-16.256 16.896-26.176 23.168-19.776 12.992-36.992 9.152-48.384-11.712-11.52-20.928-14.144-44.352-15.296-67.84-1.472-34.24-11.904-43.264-46.4-44.864-73.472-3.392-143.296 7.744-208 44.864-57.28 32.512-101.504 78.784-140.16 131.008-75.008 101.824-132.48 213.44-184.192 328.576-11.712 25.92-3.136 39.808 25.344 40.256 47.36 1.024 94.784 0.96 142.336 0.128 19.392-0.384 32.128-11.392 39.68-29.568 25.536-63.232 56.96-123.136 96.512-178.88 10.368-14.72 20.992-29.632 36.416-40 16.768-11.648 29.76-7.744 37.568 10.944 4.992 11.968 7.232 24.768 8.384 37.568 3.84 43.904 4.288 87.744-2.304 131.648-4.096 27.2-19.392 44.8-46.72 49.984-13.952 2.688-11.776 7.936-5.12 15.808 11.712 13.696 22.656 22.208 44.544 22.208h164.48c25.92-5.12 31.68-16.704 35.072-42.88l0.256-182.528c-0.32-10.112 5.056-40 23.232-46.656 14.528-4.8 24 6.848 32.768 16 39.296 41.728 67.52 91.136 92.608 142.208 11.008 22.528 20.544 45.888 30.016 69.248 6.784 17.344 17.536 25.856 37.056 25.472l158.208-0.192c4.736 0 9.408-0.064 14.080-0.832 26.752-4.416 33.92-15.936 25.664-42.112-12.928-40.832-38.208-74.752-62.912-108.992-26.368-36.48-54.656-71.68-80.64-108.544-24.192-33.472-22.144-50.432 7.744-79.488v0z" />
<glyph unicode="&#xe91d;" glyph-name="website" d="M960 128v640c0 63.872-0.256 63.872-64 63.872h-768c-63.936 0-64-0.128-64-63.872v-640c0-62.784 1.216-63.872 64-63.872h768c62.784 0 64 1.088 64 63.872zM864 783.296c26.24 0 47.232-21.184 47.232-47.232 0-26.176-21.248-47.232-47.232-47.232-26.24 0-47.232 21.248-47.232 47.232 0 26.048 20.992 47.232 47.232 47.232zM672 783.296v0 0c22.848 0 41.856-16.064 46.4-37.76 0.512-3.136 0.896-6.208 0.896-9.472s-0.384-6.4-0.896-9.472c-4.48-21.696-23.488-37.76-46.4-37.76v0 0c-26.112 0-47.232 21.248-47.232 47.232 0 26.048 20.992 47.232 47.232 47.232zM480 783.296c26.112 0 47.232-21.184 47.232-47.232 0-26.176-21.248-47.232-47.232-47.232-26.112 0-47.232 21.248-47.232 47.232-0.192 26.048 21.12 47.232 47.232 47.232zM864 135.744h-704c-29.12 0-32-4.672-32 24.256v487.744h768v-487.744c0-28.928-2.88-24.256-32-24.256z" />
<glyph unicode="&#xe91e;" glyph-name="weibo" d="M753.216 444.48c-14.144 4.288-23.808 7.232-16.384 26.112 16 41.024 17.728 76.352 0.32 101.632-32.512 47.296-121.664 44.736-223.744 1.28 0 0.064-32.064-14.272-23.744 11.648 15.616 51.392 13.248 94.4-11.264 119.232-55.36 56.448-202.56-2.112-328.96-130.624-94.592-96.32-149.44-198.4-149.44-286.656 0-168.768 212.672-281.6 420.672-281.6 272.64 0 454.144 171.52 454.144 299.584 0 77.376-64.064 121.28-121.6 139.392zM421.184 81.152c-166.016-16.512-309.248 59.008-320.064 168.576-10.816 109.632 115.136 211.84 281.088 228.288 166.016 16.512 309.248-58.944 320.064-168.512 10.752-109.632-115.008-211.904-281.088-228.352zM1024 581.952c-0.064 170.432-138.24 308.544-308.736 308.544-19.968 0-35.968-16.128-35.968-35.968 0-19.968 16.064-35.968 35.968-35.968 130.752 0 236.672-105.984 236.672-236.672 0-19.968 16.128-36.032 36.032-36.032 19.904-0.128 36.032 16 36.032 35.968 0 0 0 0.064 0 0.128zM880.896 587.2c-16.512 80.384-79.808 143.744-160.128 160.192-19.52 3.968-38.592-8.512-42.56-28.032s8.576-38.528 28.032-42.496c52.16-10.752 93.504-51.904 104.064-104.192 4.032-19.456 23.040-32.064 42.624-28.032 19.328 4.032 31.936 23.104 27.968 42.56zM336.064 370.624c-66.88-13.376-112-69.504-100.8-125.184 11.328-55.808 74.496-89.984 141.44-76.544 66.752 13.504 112 69.504 100.672 125.248-11.136 55.744-74.432 89.984-141.312 76.48z" />
<glyph unicode="&#xe91f;" glyph-name="whatsapp" d="M735.808 390.72c-1.728 0.896-67.776 33.408-79.424 37.568-4.8 1.6-9.92 3.392-15.424 3.392-8.896 0-16.32-4.352-22.208-13.12-6.592-9.792-26.496-33.152-32.704-40-0.768-1.024-1.856-1.92-2.56-1.92-0.576 0-10.752 4.096-13.824 5.44-70.72 30.72-124.48 104.704-131.84 117.056-1.024 1.856-1.024 2.624-1.024 2.624 0.192 0.96 2.624 3.2 3.904 4.48 3.52 3.584 7.424 8.256 11.136 12.736 1.792 2.24 3.584 4.288 5.312 6.4 5.44 6.4 7.936 11.2 10.688 17.088l1.472 2.88c6.912 13.696 1.088 25.344-0.832 28.992-1.6 3.008-29.376 70.272-32.384 77.312-7.104 17.088-16.512 25.088-29.568 25.088-1.216 0 0 0-5.12-0.32-6.144-0.32-39.936-4.672-54.784-14.016-15.872-10.048-42.624-41.856-42.624-97.728 0-50.304 32-97.792 45.696-115.84 0.256-0.576 0.96-1.472 1.856-2.688 52.416-76.608 117.888-133.44 184.192-159.936 63.936-25.472 94.080-28.544 111.296-28.544v0c7.232 0 13.056 0.64 18.112 1.152l3.2 0.384c22.080 1.856 70.592 27.072 81.6 57.6 8.704 24.256 11.008 50.56 5.248 60.032-4.032 6.592-10.752 9.792-19.392 13.888zM520 896c-242.688 0-440.064-195.968-440.064-436.928 0-77.76 20.864-154.048 60.352-220.8l-75.52-222.848c-1.472-4.16-0.384-8.768 2.624-11.84 2.176-2.24 5.248-3.584 8.256-3.584 1.216 0 2.368 0.256 3.52 0.576l232.512 73.856c63.616-34.048 135.552-51.968 208.256-51.968 242.56 0 440 195.968 440 436.672 0 240.896-197.44 436.864-439.936 436.864zM520 113.472c-68.48 0-134.784 19.84-191.808 57.088-1.92 1.344-4.096 2.048-6.4 2.048-1.216 0-2.368-0.256-3.52-0.64l-116.48-36.928 37.568 110.848c1.216 3.648 0.576 7.552-1.6 10.688-43.456 59.264-66.304 129.344-66.304 202.496 0 190.72 156.288 345.792 348.544 345.792 192.128 0 348.48-155.072 348.48-345.792-0.064-190.528-156.352-345.6-348.48-345.6z" />
<glyph unicode="&#xe920;" glyph-name="xing" d="M608.768 0l-200.384 351.296 310.912 544.704h209.344l-310.976-544.704 200.384-351.296h-209.28zM292.608 270.848l155.52 256-116.544 228.352h-197.376l116.608-228.288-155.52-256h197.312z" />
<glyph unicode="&#xe921;" glyph-name="yelp" d="M421.888 319.552c20.48 5.312 34.624 23.808 35.904 47.232 1.28 23.808-11.712 45.056-32 52.608l-40.512 16.576c-147.136 60.672-147.776 60.672-157.376 60.8-15.936 0.768-30.656-7.488-40-22.336-0.064 0-0.064-0.064-0.064-0.064-18.048-28.8-21.696-106.688-17.344-149.504 2.048-18.816 5.44-32.32 10.24-41.344 8-15.36 22.4-24.832 38.144-25.344 1.024-0.064 1.92-0.128 2.88-0.128 8.576 0 21.248 3.968 142.912 43.136 41.216 13.12 53.248 17.024 57.216 18.368zM492.8 290.048c-22.144 8.512-46.336 2.88-59.904-14.016 0 0-25.408-30.272-28.032-33.28-0.128-0.128-0.256-0.192-0.384-0.384-102.912-120.832-103.168-121.536-106.432-130.944-2.304-6.336-3.136-12.928-2.432-19.072 0.896-9.024 4.672-17.664 11.328-25.792 23.936-28.352 123.712-66.56 169.792-66.56 3.648 0 6.912 0.192 9.792 0.768 17.216 3.136 30.336 13.568 35.84 28.608 0 0 0 0.128 0.064 0.192 3.2 9.088 3.328 9.6 3.712 151.744 0 0 0.384 56.768 0.448 59.84 1.216 21.312-11.968 40.512-33.792 48.896zM838.4 266.24c-7.68 5.824-8 6.016-143.104 50.368 0 0-51.776 17.088-56.64 18.816-0.128 0.064-0.128 0.064-0.128 0.064-19.904 7.68-42.24 0.96-56.896-17.152-15.104-18.368-17.024-43.264-4.992-61.44l22.72-37.248c83.136-134.912 84.096-135.744 91.712-141.632 7.744-6.080 16.96-9.216 26.56-9.216 6.272 0 12.544 1.28 18.88 3.904 37.376 14.912 112.448 110.336 118.144 150.272 2.496 17.28-3.264 32.96-16.256 43.264zM617.344 381.184c1.024-0.192 1.984-0.256 3.072-0.256 1.728 0 3.584 0.256 5.312 1.024 6.528 2.496 20.224 5.824 41.92 10.944 0 0 0 0 0.064 0 153.728 37.248 154.752 37.952 163.2 43.392 13.056 8.832 20.032 23.68 19.2 40.832 0 0.96 0 1.984-0.128 2.624-4.224 41.344-70.848 139.712-106.496 157.056-15.744 7.488-32.512 6.656-45.76-2.176-8.128-5.248-8.128-5.248-92.352-120.512 0 0-33.984-46.144-35.584-48.32-13.568-16.512-14.016-39.808-1.28-59.328 11.392-17.536 30.208-27.072 48.832-25.28zM508.992 862.080c-4.352 16.128-16.96 27.84-34.496 32.32-42.432 10.432-191.552-31.488-221.76-62.528-11.904-12.416-16.704-28.864-12.672-43.712 0.192-0.96 0.512-1.792 0.96-2.624 4.16-8.704 140.8-223.808 182.528-289.344 17.472-28.288 36.608-42.56 57.024-42.56 4.864 0 9.728 0.832 14.656 2.432 26.176 7.808 38.464 32.576 36.416 73.344-2.304 51.328-19.776 316.928-22.656 332.672z" />
<glyph unicode="&#xe922;" glyph-name="youtube" d="M952.32 617.984c-4.992 59.968-40.576 135.552-113.536 138.24-204.096 13.696-445.824 17.536-653.632-0.064-64.512-7.232-108.672-86.144-113.472-146.048-10.24-125.888-10.24-197.504 0-323.456 4.864-60.032 47.936-139.328 113.536-147.712 210.24-13.696 450.752-15.616 653.504 0 63.744 11.2 108.736 87.68 113.536 147.712 10.304 125.888 10.304 205.376 0.064 331.328zM396.8 283.2v328.192l320-163.456-320-164.736z" />
<glyph unicode="&#xe923;" glyph-name="snapchat" d="M939.776 239.104c-112.96 18.624-164.224 132.8-169.856 145.728 0 0.256-0.512 1.28-0.64 1.408-5.632 11.52-6.976 20.864-4.096 27.712 6.016 14.144 31.040 22.080 47.104 27.072 4.544 1.408 8.768 2.88 12.224 4.096 32.384 12.864 48.768 29.312 48.448 48.896-0.32 15.552-12.48 29.696-30.592 36.032-6.144 2.624-13.568 4.032-20.8 4.032-4.928 0-12.288-0.704-19.392-3.968-13.824-6.528-26.048-9.856-35.328-10.304-4.096 0.256-7.104 0.96-9.408 1.6 0.256 4.8 0.576 9.92 0.96 15.040l0.128 2.624c3.904 60.8 8.64 136.704-11.648 182.144-60.032 134.464-187.264 144.896-224.896 144.896l-17.472-0.192c-37.504 0-164.608-10.432-224.512-144.704-20.224-45.44-15.488-121.344-11.648-182.272 0.384-5.952 0.768-11.776 1.088-17.472-2.56-0.832-6.272-1.664-11.328-1.664-10.752 0-23.68 3.584-38.4 10.368-21.12 9.984-59.968-3.392-65.216-30.848-2.816-15.040 3.136-36.352 47.936-54.144 3.52-1.28 7.872-2.752 13.248-4.416 14.976-4.736 40.128-12.736 46.016-26.688 2.944-6.912 1.536-16.32-4.608-28.928-2.24-5.056-55.424-126.272-172.864-145.536-12.16-1.92-20.928-12.8-20.224-25.088 0.256-3.456 1.024-6.848 2.496-10.304 9.856-23.040 47.488-39.168 118.208-50.368 1.536-3.968 3.392-12.224 4.352-17.024 1.536-6.784 3.072-13.824 5.184-21.248 2.176-7.36 8.576-19.712 27.072-19.712 6.208 0 13.44 1.344 21.376 2.816 11.328 2.304 26.752 5.248 45.952 5.248 10.624 0 21.696-0.96 32.896-2.752 21.248-3.52 39.744-16.64 61.248-31.744 31.68-22.528 60.544-39.616 118.208-39.616 1.472 0 3.008 0.064 4.48 0.192 2.176-0.128 4.352-0.192 6.528-0.192 50.496 0 94.912 13.376 132.096 39.616 20.48 14.528 40 28.224 61.056 31.744 11.328 1.792 22.4 2.752 33.088 2.752 18.368 0 33.024-2.24 46.144-4.8 8.896-1.728 15.744-2.624 22.272-2.624 12.864 0 22.336 7.104 25.984 19.52 1.984 7.104 3.648 14.016 5.12 20.992 0.768 3.648 2.752 12.608 4.352 16.832 69.76 11.2 105.344 26.624 115.264 49.664 1.408 3.264 2.304 6.72 2.624 10.496 0.64 12.224-8.064 23.104-20.224 25.088z" />
</font>
</defs>
</svg>
